<svg width="355" height="372" viewBox="0 0 355 372" fill="none" xmlns="http://www.w3.org/2000/svg">
<g id="vFour">
<path id="t1" d="M233.66 45.76V0H187.13V17.85H211.39V91.48C214.318 91.48 217.218 90.9032 219.924 89.7825C222.629 88.6618 225.088 87.0192 227.158 84.9485C229.229 82.8777 230.872 80.4194 231.992 77.7138C233.113 75.0083 233.69 72.1085 233.69 69.18V45.76H233.66Z" fill="#ED1C24"/>
<path id="t2" d="M257.93 13.84C257.93 10.1694 256.472 6.64915 253.876 4.05364C251.281 1.45814 247.761 0 244.09 0V0V17.85H257.93V13.84Z" fill="#ED1C24"/>
<path id="a2" d="M124.73 47.68H127.73L135.47 24.63L143.28 47.69H165.8L148.49 0.0100098H124.73V47.68Z" fill="#ED1C24"/>
<path id="a3" d="M124.73 58.1201V75.3301H152.56L158.05 91.4801H181.64L169.58 58.1201H124.73Z" fill="#ED1C24"/>
<path id="a1" d="M114.24 23.3L97.96 68.3C97.0123 70.9156 96.7086 73.7208 97.0746 76.4786C97.4406 79.2363 98.4654 81.8653 100.062 84.1431C101.659 86.4209 103.782 88.2805 106.249 89.5646C108.717 90.8486 111.458 91.5194 114.24 91.5201V91.5201V23.3Z" fill="#ED1C24"/>
<path id="i2" d="M74.03 278.85H66.42C62.5266 278.85 58.7927 280.397 56.0397 283.15C53.2866 285.903 51.74 289.637 51.74 293.53H74.03V278.85Z" fill="#ED1C24"/>
<path id="n33" d="M185.85 293.53C185.85 289.637 184.303 285.903 181.55 283.15C178.797 280.397 175.063 278.85 171.17 278.85H163.55V293.53H185.85Z" fill="#ED1C24"/>
<path id="g1" d="M270.98 318.72V335.15H282.93C281.483 339.931 278.56 344.132 274.58 347.15C270.548 350.019 265.685 351.484 260.74 351.32C257.267 351.499 253.794 350.957 250.54 349.731C247.286 348.504 244.321 346.617 241.83 344.19C237.053 338.735 234.617 331.618 235.05 324.38C234.719 317.507 237.042 310.769 241.54 305.56C245.18 301.965 249.843 299.583 254.89 298.741C259.937 297.9 265.12 298.64 269.73 300.86C272.774 302.36 275.271 304.777 276.87 307.77H301.55C299.397 298.855 294.063 291.032 286.55 285.77C278.393 280.338 268.734 277.609 258.94 277.97C250.5 277.82 242.169 279.889 234.78 283.97C227.815 287.827 222.078 293.57 218.23 300.54C214.36 307.988 212.34 316.257 212.34 324.65C212.34 333.043 214.36 341.313 218.23 348.76C222.131 355.68 227.855 361.398 234.78 365.29C242.236 369.288 250.591 371.312 259.05 371.17C266.174 371.291 273.23 369.768 279.67 366.72C285.244 364.079 290.208 360.306 294.245 355.642C298.282 350.978 301.304 345.525 303.12 339.63V318.72H270.98Z" fill="#ED1C24"/>
<path id="g2" d="M261.45 318.72H254.6V335.15H261.45V318.72Z" fill="#ED1C24"/>
<path id="i1" d="M74.03 304H51.74V348C51.7387 350.928 52.3143 353.828 53.4338 356.533C54.5534 359.239 56.1951 361.697 58.265 363.768C60.335 365.839 62.7927 367.482 65.4977 368.602C68.2027 369.723 71.102 370.3 74.03 370.3V370.3V304Z" fill="#ED1C24"/>
<path id="n11" d="M126.23 357.46H103.93C103.933 360.872 105.29 364.143 107.703 366.554C110.116 368.965 113.388 370.32 116.8 370.32H126.23V357.46Z" fill="#ED1C24"/>
<path id="n22" d="M163.55 304.01V335.54L126.23 278.85C120.316 278.85 114.644 281.2 110.461 285.382C106.279 289.564 103.93 295.236 103.93 301.15V347.02H126.23V313.91L163.55 370.32C166.479 370.321 169.379 369.745 172.085 368.625C174.791 367.505 177.25 365.863 179.321 363.792C181.392 361.72 183.035 359.262 184.155 356.555C185.275 353.849 185.851 350.949 185.85 348.02V304.02L163.55 304.01Z" fill="#ED1C24"/>
<path id="e1" d="M75.6799 139.44V165.28H97.9299V157.28H131.72V139.44H75.6799Z" fill="#ED1C24"/>
<path id="n3" d="M243.81 154.63C243.807 150.736 242.258 147.002 239.504 144.249C236.749 141.497 233.014 139.95 229.12 139.95H221.51V154.63H243.81Z" fill="#ED1C24"/>
<path id="d1" d="M349.01 161.32C345.141 154.423 339.335 148.812 332.31 145.18C324.43 141.177 315.675 139.204 306.84 139.44H305.3V158.44C308.928 158.041 312.599 158.46 316.045 159.665C319.49 160.87 322.622 162.831 325.211 165.403C327.8 167.976 329.78 171.096 331.007 174.533C332.234 177.971 332.675 181.639 332.3 185.27C332.52 188.847 331.999 192.432 330.77 195.799C329.542 199.167 327.632 202.244 325.16 204.84C322.504 207.245 319.394 209.096 316.013 210.283C312.631 211.469 309.047 211.968 305.47 211.75H294.77V139.44H272.69V230.92H306.84C315.577 231.101 324.225 229.13 332.02 225.18C339.11 221.57 344.97 215.94 348.86 209C352.799 201.671 354.86 193.48 354.86 185.16C354.86 176.839 352.799 168.649 348.86 161.32H349.01Z" fill="#ED1C24"/>
<path id="l1" d="M22.3 139.44C16.3857 139.44 10.7136 141.789 6.53152 145.971C2.34946 150.154 0 155.826 0 161.74V203.34H22.3V139.44Z" fill="#ED1C24"/>
<path id="l2" d="M51.52 213.78H0C0.00264937 218.325 1.80932 222.683 5.02312 225.897C8.23692 229.111 12.595 230.918 17.14 230.92H51.52V213.78Z" fill="#ED1C24"/>
<path id="n1" d="M184.19 218.56H161.93C161.93 221.971 163.285 225.242 165.697 227.653C168.108 230.065 171.379 231.42 174.79 231.42H184.23L184.19 218.56Z" fill="#ED1C24"/>
<path id="n2" d="M221.51 165.1V196.63L184.19 139.94C178.282 139.948 172.618 142.301 168.444 146.483C164.27 150.664 161.927 156.332 161.93 162.24V208.12H184.23V175.01L221.55 231.42C227.464 231.42 233.136 229.07 237.318 224.888C241.5 220.706 243.85 215.034 243.85 209.12V165.12L221.51 165.1Z" fill="#ED1C24"/>
<path id="e3" d="M127.84 175.79H108.43V193H127.84V175.79Z" fill="#ED1C24"/>
<path id="e2" d="M97.9299 213.06V175.72H75.6799V230.92H131.76V213.06H97.9299Z" fill="#ED1C24"/>
</g>
</svg>
