<svg width="442" height="517" viewBox="0 0 442 517" fill="none" xmlns="http://www.w3.org/2000/svg">
<g id="vOne">
<path id="t1" d="M280.105 151.756V106H233.58V123.853H257.842V197.476H280.141V151.756H280.105Z" fill="#ED1C24"/>
<path id="t2" d="M304.402 106H290.559V123.853H304.402V106Z" fill="#ED1C24"/>
<path id="a2" d="M171.179 153.68H174.176L181.918 130.624L189.732 153.68H212.245L194.941 106H171.179V153.68Z" fill="#ED1C24"/>
<path id="a3" d="M171.179 164.121V181.333H199.008L204.503 197.476H228.086L216.027 164.121H171.179Z" fill="#ED1C24"/>
<path id="a1" d="M160.689 129.306L136 197.476H160.689V193.485V129.306Z" fill="#ED1C24"/>
<path id="g1" d="M314.244 424.723V441.151H326.196C324.752 445.934 321.83 450.138 317.847 453.16C313.816 456.03 308.951 457.495 304.004 457.329C300.53 457.508 297.057 456.967 293.803 455.74C290.549 454.514 287.584 452.628 285.094 450.202C280.319 444.743 277.884 437.626 278.316 430.389C277.985 423.518 280.31 416.782 284.809 411.574C288.445 407.977 293.107 405.593 298.154 404.751C303.201 403.908 308.386 404.649 312.995 406.87C316.04 408.37 318.536 410.789 320.131 413.783H344.82C342.67 404.858 337.328 397.026 329.799 391.76C321.641 386.333 311.981 383.603 302.184 383.956C293.747 383.802 285.417 385.867 278.03 389.943C271.06 393.799 265.321 399.543 261.475 406.513C257.606 413.962 255.587 422.23 255.587 430.621C255.587 439.012 257.606 447.28 261.475 454.728C265.374 461.65 271.1 467.369 278.03 471.263C285.482 475.26 293.834 477.284 302.291 477.143C309.417 477.26 316.473 475.736 322.913 472.688C328.493 470.047 333.461 466.275 337.503 461.612C341.544 456.95 344.571 451.499 346.39 445.605V424.723H314.244Z" fill="#ED1C24"/>
<path id="g1_2" d="M304.718 424.723H297.867V441.151H304.718V424.723Z" fill="#ED1C24"/>
<path id="i1" d="M117.299 410.005H95V476.323H117.299V410.005Z" fill="#ED1C24"/>
<path id="i2" d="M117.299 384.847H95V399.529H117.299V384.847Z" fill="#ED1C24"/>
<path id="n11" d="M169.496 463.458H147.198V476.323H169.496V463.458Z" fill="#ED1C24"/>
<path id="n33" d="M229.115 384.847H206.816V399.529H229.115V384.847Z" fill="#ED1C24"/>
<path id="n22" d="M206.816 410.006V441.543L169.497 384.847H147.198V453.017H169.497V419.912L206.816 476.323H229.115V410.006H206.816Z" fill="#ED1C24"/>
<path id="e1" d="M118.674 245.441V271.277H140.973V263.295H174.76V245.441H118.674Z" fill="#ED1C24"/>
<path id="n3" d="M286.804 245.946H264.505V260.628H286.804V245.946Z" fill="#ED1C24"/>
<path id="d1" d="M392.006 267.321C388.139 260.427 382.334 254.815 375.309 251.179C367.428 247.178 358.671 245.205 349.834 245.441H348.3V264.471C351.931 264.073 355.606 264.493 359.054 265.699C362.502 266.905 365.636 268.866 368.226 271.44C370.816 274.013 372.796 277.132 374.022 280.57C375.247 284.007 375.687 287.675 375.309 291.304C375.526 294.879 375.004 298.461 373.777 301.827C372.549 305.192 370.642 308.27 368.173 310.868C365.518 313.274 362.408 315.126 359.025 316.313C355.643 317.5 352.057 318 348.478 317.781H337.775V245.441H315.69V336.917H349.834C358.575 337.104 367.227 335.134 375.023 331.18C382.112 327.566 387.972 321.936 391.863 315.002C395.798 307.67 397.857 299.48 397.857 291.161C397.857 282.843 395.798 274.653 391.863 267.321H392.006Z" fill="#ED1C24"/>
<path id="l1" d="M65.299 245.441H43V309.336H65.299V245.441Z" fill="#ED1C24"/>
<path id="l2" d="M94.5196 319.777H43V336.917H94.5196V319.777Z" fill="#ED1C24"/>
<path id="n1" d="M227.185 324.558H204.886V337.422H227.185V324.558Z" fill="#ED1C24"/>
<path id="n2" d="M264.505 271.104V302.642L227.185 245.946H204.886V314.116H227.185V281.011L264.505 337.422H286.804V271.104H264.505Z" fill="#ED1C24"/>
<path id="e3" d="M170.836 281.789H151.427V299.001H170.836V281.789Z" fill="#ED1C24"/>
<path id="e2" d="M140.973 319.064V313.434V281.718H118.674V336.917H174.76V319.064H140.973Z" fill="#ED1C24"/>
<path id="roof" d="M0 201.26C18.93 184.15 38.18 167.42 57.4 150.66L86.4 125.66L115.51 100.85C125.19 92.56 134.96 84.37 144.72 76.16L174 51.58L203.42 27.16C213.2 19 223 10.84 232.84 2.79L236.26 0L239.42 3L265 27.43C273.52 35.56 282 43.69 290.48 51.91C307.41 68.29 324.37 84.64 341.15 101.18C357.93 117.72 374.72 134.25 391.41 150.88C408.1 167.51 424.68 184.27 441.03 201.26C423.22 185.81 405.68 170.07 388.15 154.32C370.62 138.57 353.21 122.69 335.91 106.7C318.61 90.71 301.32 74.7 284.08 58.65C275.44 50.65 266.88 42.55 258.31 34.47L232.61 10.22L239.19 10.45C229.41 18.62 219.5 26.64 209.66 34.74L180.05 59L150.32 83C140.42 91 130.51 99 120.53 107L90.64 130.86L60.64 154.54C40.49 170.22 20.4 185.93 0 201.26Z" fill="#ED1C24"/>
<path id="base" d="M38.2799 368.26C39.1699 380.26 39.7299 392.17 40.2799 404.13L40.9499 422.06L41.4499 440L41.8199 457.93C41.9399 463.93 42.0499 469.93 42.0999 475.87C42.2299 487.82 42.3299 499.78 42.2399 511.73L37.7299 507.27C68.1599 507.13 98.5999 508.78 129.03 509.11C159.46 509.44 189.88 508.54 220.3 507.19C235.51 506.54 250.71 505.86 265.92 505.37C281.13 504.88 296.34 504.58 311.55 504.23L334.37 503.74C341.97 503.58 349.58 503.42 357.19 503.33C372.403 503.13 387.613 503.057 402.82 503.11L397.74 508.25C397.86 496.58 398.14 484.92 398.34 473.25C398.44 467.42 398.62 461.59 398.77 455.76C398.92 449.93 399.05 444.09 399.26 438.26L399.84 420.76L400.54 403.27C401.07 391.6 401.6 379.94 402.37 368.27H403.37C404.15 379.94 404.68 391.6 405.21 403.27L405.91 420.76L406.49 438.26C406.7 444.09 406.81 449.92 406.98 455.76C407.15 461.6 407.31 467.42 407.4 473.25C407.61 484.92 407.89 496.58 408.01 508.25L408.06 513.25L402.92 513.37C387.707 513.717 372.497 513.933 357.29 514.02C349.68 514.08 342.07 514.02 334.47 514.02H311.65C296.43 513.96 281.22 513.9 266 513.75C250.78 513.6 235.57 513.15 220.35 512.75C189.92 511.98 159.49 511.66 129.07 512.58C98.6499 513.5 68.2399 515.71 37.8199 516.16L33.3399 516.22V511.69C33.2599 499.69 33.3399 487.78 33.4799 475.83C33.4799 469.83 33.6499 463.83 33.7699 457.89L34.0999 440L34.6199 422.07L35.2999 404.14C35.8299 392.14 36.3799 380.23 37.2999 368.27L38.2799 368.26Z" fill="#ED1C24"/>
<path id="chim" d="M90.8301 122.19L93.0701 40.74L96.2901 43.98L60.2901 43.19L62.7201 40.77L59.6701 152.05L57.8601 40.75L57.8201 38.38L60.2901 38.33L96.2901 37.54L99.4501 37.47L99.5101 40.78L100.83 122.25L90.8301 122.19Z" fill="#ED1C24"/>
</g>
</svg>
