<svg width="355" height="372" viewBox="0 0 355 372" fill="none" xmlns="http://www.w3.org/2000/svg">
<g id="vThree">
<path id="t1" d="M237.105 45.7558V0H190.58V17.8533H214.842V91.476H237.141V45.7558H237.105Z" fill="#ED1C24"/>
<path id="t2" d="M261.402 0H247.559V17.8533H261.402V0Z" fill="#ED1C24"/>
<path id="a2" d="M128.179 47.6801H131.176L138.918 24.6241L146.732 47.6801H169.245L151.941 0H128.179V47.6801Z" fill="#ED1C24"/>
<path id="a3" d="M128.179 58.1213V75.3332H156.008L161.503 91.4761H185.086L173.027 58.1213H128.179Z" fill="#ED1C24"/>
<path id="a1" d="M117.689 23.3057L93 91.4762H117.689V87.485V23.3057Z" fill="#ED1C24"/>
<path id="g1" d="M271.244 318.723V335.151H283.196C281.752 339.934 278.83 344.138 274.847 347.16C270.816 350.03 265.951 351.495 261.004 351.329C257.53 351.508 254.057 350.967 250.803 349.74C247.549 348.514 244.584 346.628 242.094 344.202C237.319 338.743 234.884 331.626 235.316 324.389C234.985 317.518 237.31 310.782 241.809 305.574C245.445 301.977 250.107 299.593 255.154 298.751C260.201 297.908 265.386 298.649 269.995 300.87C273.04 302.37 275.536 304.789 277.131 307.783H301.82C299.67 298.858 294.328 291.026 286.799 285.76C278.641 280.333 268.981 277.603 259.184 277.956C250.747 277.802 242.417 279.867 235.03 283.943C228.06 287.799 222.321 293.543 218.475 300.513C214.606 307.962 212.587 316.23 212.587 324.621C212.587 333.012 214.606 341.28 218.475 348.728C222.374 355.65 228.1 361.369 235.03 365.263C242.482 369.26 250.834 371.284 259.291 371.143C266.417 371.26 273.473 369.736 279.913 366.688C285.493 364.047 290.461 360.275 294.503 355.612C298.544 350.95 301.571 345.499 303.39 339.605V318.723H271.244Z" fill="#ED1C24"/>
<path id="g1_2" d="M261.718 318.723H254.867V335.151H261.718V318.723Z" fill="#ED1C24"/>
<path id="i1" d="M74.299 304.005H52V370.323H74.299V304.005Z" fill="#ED1C24"/>
<path id="i2" d="M74.299 278.847H52V293.528H74.299V278.847Z" fill="#ED1C24"/>
<path id="n11" d="M126.496 357.458H104.198V370.323H126.496V357.458Z" fill="#ED1C24"/>
<path id="n33" d="M186.115 278.847H163.816V293.528H186.115V278.847Z" fill="#ED1C24"/>
<path id="n22" d="M163.816 304.005V335.543L126.497 278.847H104.198V347.017H126.497V313.912L163.816 370.323H186.115V304.005H163.816Z" fill="#ED1C24"/>
<path id="e1" d="M75.6738 139.441V165.277H97.9728V157.295H131.76V139.441H75.6738Z" fill="#ED1C24"/>
<path id="n3" d="M243.804 139.946H221.505V154.628H243.804V139.946Z" fill="#ED1C24"/>
<path id="d1" d="M349.006 161.321C345.139 154.427 339.334 148.815 332.309 145.179C324.428 141.178 315.671 139.205 306.834 139.441H305.3V158.471C308.931 158.073 312.606 158.493 316.054 159.699C319.502 160.905 322.636 162.866 325.226 165.44C327.816 168.013 329.796 171.132 331.022 174.57C332.247 178.007 332.687 181.675 332.309 185.304C332.526 188.879 332.004 192.461 330.777 195.827C329.549 199.192 327.642 202.27 325.173 204.868C322.518 207.274 319.408 209.126 316.025 210.313C312.643 211.5 309.057 212 305.478 211.781H294.775V139.441H272.69V230.917H306.834C315.575 231.104 324.227 229.134 332.023 225.18C339.112 221.566 344.972 215.936 348.863 209.002C352.798 201.67 354.857 193.48 354.857 185.161C354.857 176.843 352.798 168.653 348.863 161.321H349.006Z" fill="#ED1C24"/>
<path id="l1" d="M22.299 139.441H0V203.336H22.299V139.441Z" fill="#ED1C24"/>
<path id="l2" d="M51.5196 213.777H0V230.917H51.5196V213.777Z" fill="#ED1C24"/>
<path id="n1" d="M184.185 218.558H161.886V231.422H184.185V218.558Z" fill="#ED1C24"/>
<path id="n2" d="M221.505 165.104V196.642L184.185 139.946H161.886V208.116H184.185V175.011L221.505 231.422H243.804V165.104H221.505Z" fill="#ED1C24"/>
<path id="e3" d="M127.836 175.789H108.427V193.001H127.836V175.789Z" fill="#ED1C24"/>
<path id="e2" d="M97.9728 213.064V207.434V175.718H75.6738V230.917H131.76V213.064H97.9728Z" fill="#ED1C24"/>
</g>
</svg>
