<svg width="442" height="517" viewBox="0 0 442 517" fill="none" xmlns="http://www.w3.org/2000/svg">
<g id="vTwo">
<path id="t1" d="M276.66 151.76V106H230.13V123.85H254.39V197.48C257.318 197.48 260.218 196.903 262.924 195.783C265.629 194.662 268.088 193.019 270.158 190.948C272.229 188.878 273.872 186.419 274.992 183.714C276.113 181.008 276.69 178.108 276.69 175.18V151.76H276.66Z" fill="#ED1C24"/>
<path id="t2" d="M300.93 119.84C300.93 116.169 299.472 112.649 296.876 110.054C294.281 107.458 290.761 106 287.09 106V106V123.85H300.93V119.84Z" fill="#ED1C24"/>
<path id="a2" d="M167.73 153.68H170.73L178.47 130.63L186.28 153.69H208.8L191.49 106.01H167.73V153.68Z" fill="#ED1C24"/>
<path id="a3" d="M167.73 164.12V181.33H195.56L201.05 197.48H224.64L212.58 164.12H167.73Z" fill="#ED1C24"/>
<path id="a1" d="M157.24 129.3L140.96 174.3C140.012 176.916 139.709 179.721 140.075 182.479C140.441 185.236 141.465 187.865 143.062 190.143C144.659 192.421 146.782 194.281 149.249 195.565C151.717 196.849 154.458 197.519 157.24 197.52V197.52V129.3Z" fill="#ED1C24"/>
<path id="i2" d="M117.03 384.85H109.42C105.527 384.85 101.793 386.397 99.0397 389.15C96.2866 391.903 94.74 395.637 94.74 399.53H117.03V384.85Z" fill="#ED1C24"/>
<path id="n33" d="M228.85 399.53C228.85 395.637 227.303 391.903 224.55 389.15C221.797 386.397 218.063 384.85 214.17 384.85H206.55V399.53H228.85Z" fill="#ED1C24"/>
<path id="g1" d="M313.98 424.72V441.15H325.93C324.483 445.931 321.56 450.132 317.58 453.15C313.548 456.018 308.685 457.483 303.74 457.32C300.267 457.498 296.794 456.957 293.54 455.73C290.286 454.503 287.321 452.617 284.83 450.19C280.053 444.735 277.617 437.618 278.05 430.38C277.719 423.506 280.042 416.768 284.54 411.56C288.18 407.964 292.843 405.583 297.89 404.741C302.937 403.9 308.12 404.64 312.73 406.86C315.774 408.36 318.271 410.777 319.87 413.77H344.55C342.397 404.854 337.063 397.031 329.55 391.77C321.393 386.337 311.734 383.609 301.94 383.97C293.5 383.82 285.169 385.889 277.78 389.97C270.815 393.827 265.078 399.57 261.23 406.54C257.36 413.988 255.34 422.257 255.34 430.65C255.34 439.043 257.36 447.313 261.23 454.76C265.131 461.68 270.855 467.397 277.78 471.29C285.236 475.288 293.591 477.312 302.05 477.17C309.174 477.291 316.23 475.768 322.67 472.72C328.244 470.078 333.208 466.306 337.245 461.642C341.282 456.978 344.304 451.525 346.12 445.63V424.72H313.98Z" fill="#ED1C24"/>
<path id="g2" d="M304.45 424.72H297.6V441.15H304.45V424.72Z" fill="#ED1C24"/>
<path id="i1" d="M117.03 410H94.74V454C94.7387 456.928 95.3143 459.828 96.4338 462.533C97.5534 465.239 99.1951 467.697 101.265 469.768C103.335 471.839 105.793 473.482 108.498 474.602C111.203 475.723 114.102 476.3 117.03 476.3V476.3V410Z" fill="#ED1C24"/>
<path id="n11" d="M169.23 463.46H146.93C146.933 466.872 148.29 470.143 150.703 472.554C153.116 474.965 156.388 476.32 159.8 476.32H169.23V463.46Z" fill="#ED1C24"/>
<path id="n22" d="M206.55 410.01V441.54L169.23 384.85C163.316 384.85 157.644 387.2 153.461 391.382C149.279 395.564 146.93 401.236 146.93 407.15V453.02H169.23V419.91L206.55 476.32C209.479 476.321 212.379 475.745 215.085 474.625C217.791 473.505 220.25 471.863 222.321 469.792C224.392 467.72 226.035 465.262 227.155 462.555C228.275 459.849 228.851 456.949 228.85 454.02V410.02L206.55 410.01Z" fill="#ED1C24"/>
<path id="e1" d="M118.68 245.44V271.28H140.93V263.28H174.72V245.44H118.68Z" fill="#ED1C24"/>
<path id="n3" d="M286.81 260.63C286.807 256.736 285.258 253.002 282.504 250.249C279.749 247.496 276.014 245.95 272.12 245.95H264.51V260.63H286.81Z" fill="#ED1C24"/>
<path id="d1" d="M392.01 267.32C388.141 260.423 382.335 254.812 375.31 251.18C367.43 247.177 358.675 245.204 349.84 245.44H348.3V264.44C351.928 264.042 355.599 264.46 359.045 265.665C362.49 266.87 365.622 268.831 368.211 271.404C370.8 273.976 372.78 277.096 374.007 280.533C375.234 283.971 375.675 287.64 375.3 291.27C375.52 294.848 374.999 298.432 373.77 301.8C372.542 305.167 370.632 308.244 368.16 310.84C365.504 313.246 362.394 315.096 359.013 316.283C355.631 317.47 352.047 317.968 348.47 317.75H337.77V245.44H315.69V336.92H349.84C358.577 337.102 367.225 335.13 375.02 331.18C382.11 327.57 387.97 321.94 391.86 315C395.799 307.671 397.86 299.48 397.86 291.16C397.86 282.84 395.799 274.649 391.86 267.32H392.01Z" fill="#ED1C24"/>
<path id="l1" d="M65.3 245.44C59.3857 245.44 53.7136 247.789 49.5315 251.971C45.3495 256.154 43 261.826 43 267.74V309.34H65.3V245.44Z" fill="#ED1C24"/>
<path id="l2" d="M94.52 319.78H43C43.0026 324.325 44.8093 328.683 48.0231 331.897C51.2369 335.111 55.595 336.917 60.14 336.92H94.52V319.78Z" fill="#ED1C24"/>
<path id="n1" d="M227.19 324.56H204.93C204.93 327.971 206.285 331.242 208.697 333.653C211.108 336.065 214.379 337.42 217.79 337.42H227.23L227.19 324.56Z" fill="#ED1C24"/>
<path id="n2" d="M264.51 271.1V302.63L227.19 245.94C221.282 245.948 215.618 248.301 211.444 252.483C207.27 256.664 204.927 262.332 204.93 268.24V314.12H227.23V281.01L264.55 337.42C270.464 337.42 276.136 335.07 280.318 330.888C284.5 326.706 286.85 321.034 286.85 315.12V271.12L264.51 271.1Z" fill="#ED1C24"/>
<path id="e3" d="M170.84 281.79H151.43V299H170.84V281.79Z" fill="#ED1C24"/>
<path id="e2" d="M140.93 319.06V281.72H118.68V336.92H174.76V319.06H140.93Z" fill="#ED1C24"/>
<path id="roof" d="M0 201.26C18.93 184.15 38.18 167.42 57.4 150.66L86.4 125.66L115.51 100.85C125.19 92.56 134.96 84.37 144.72 76.16L174 51.58L203.42 27.16C213.2 19 223 10.84 232.84 2.79L236.26 0L239.42 3L265 27.43C273.52 35.56 282 43.69 290.48 51.91C307.41 68.29 324.37 84.64 341.15 101.18C357.93 117.72 374.72 134.25 391.41 150.88C408.1 167.51 424.68 184.27 441.03 201.26C423.22 185.81 405.68 170.07 388.15 154.32C370.62 138.57 353.21 122.69 335.91 106.7C318.61 90.71 301.32 74.7 284.08 58.65C275.44 50.65 266.88 42.55 258.31 34.47L232.61 10.22L239.19 10.45C229.41 18.62 219.5 26.64 209.66 34.74L180.05 59L150.32 83C140.42 91 130.51 99 120.53 107L90.64 130.86L60.64 154.54C40.49 170.22 20.4 185.93 0 201.26Z" fill="#ED1C24"/>
<path id="base" d="M38.2799 368.26C39.1699 380.26 39.7299 392.17 40.2799 404.13L40.9499 422.06L41.4499 440L41.8199 457.93C41.9399 463.93 42.0499 469.93 42.0999 475.87C42.2299 487.82 42.3299 499.78 42.2399 511.73L37.7299 507.27C68.1599 507.13 98.5999 508.78 129.03 509.11C159.46 509.44 189.88 508.54 220.3 507.19C235.51 506.54 250.71 505.86 265.92 505.37C281.13 504.88 296.34 504.58 311.55 504.23L334.37 503.74C341.97 503.58 349.58 503.42 357.19 503.33C372.403 503.13 387.613 503.057 402.82 503.11L397.74 508.25C397.86 496.58 398.14 484.92 398.34 473.25C398.44 467.42 398.62 461.59 398.77 455.76C398.92 449.93 399.05 444.09 399.26 438.26L399.84 420.76L400.54 403.27C401.07 391.6 401.6 379.94 402.37 368.27H403.37C404.15 379.94 404.68 391.6 405.21 403.27L405.91 420.76L406.49 438.26C406.7 444.09 406.81 449.92 406.98 455.76C407.15 461.6 407.31 467.42 407.4 473.25C407.61 484.92 407.89 496.58 408.01 508.25L408.06 513.25L402.92 513.37C387.707 513.717 372.497 513.933 357.29 514.02C349.68 514.08 342.07 514.02 334.47 514.02H311.65C296.43 513.96 281.22 513.9 266 513.75C250.78 513.6 235.57 513.15 220.35 512.75C189.92 511.98 159.49 511.66 129.07 512.58C98.6499 513.5 68.2399 515.71 37.8199 516.16L33.3399 516.22V511.69C33.2599 499.69 33.3399 487.78 33.4799 475.83C33.4799 469.83 33.6499 463.83 33.7699 457.89L34.0999 440L34.6199 422.07L35.2999 404.14C35.8299 392.14 36.3799 380.23 37.2999 368.27L38.2799 368.26Z" fill="#ED1C24"/>
<path id="chim" d="M90.8301 122.19L93.0701 40.74L96.2901 43.98L60.2901 43.19L62.7201 40.77L59.6701 152.05L57.8601 40.75L57.8201 38.38L60.2901 38.33L96.2901 37.54L99.4501 37.47L99.5101 40.78L100.83 122.25L90.8301 122.19Z" fill="#ED1C24"/>
</g>
</svg>
